<?xml version="1.0" ?><!DOCTYPE svg  PUBLIC '-//W3C//DTD SVG 1.1//EN'  'http://www.w3.org/Graphics/SVG/1.1/DTD/svg11.dtd'><svg height="48px" id="Слой_1" style="enable-background:new 0 0 48 48;" version="1.1" viewBox="0 0 48 48" width="48px" xml:space="preserve" xmlns="http://www.w3.org/2000/svg" xmlns:xlink="http://www.w3.org/1999/xlink"><g><g><polygon points="19,24.2 23.2,16 19,16 29.3,6.2 24.8,14 29,14    " style="fill:#7D50F9;"/><path d="M40,16c0-8.8-7.2-16-16-16S8,7.2,8,16c0,6.1,3.5,11.7,9,14.4V36c-1.1,0-2,0.9-2,2v2     c0,1.1,0.9,2,2,2h1v1c0,1.1,0.9,2,2,2h1v1c0,1.1,0.9,2,2,2h2c1.1,0,2-0.9,2-2v-1h1c1.1,0,2-0.9,2-2v-1h1c1.1,0,2-0.9,2-2v-2     c0-1.1-0.9-2-2-2v-5.6C36.5,27.7,40,22.1,40,16z M25,46h-2v-1h2V46z M28,43h-8v-1h8V43z M31,40H17v-2h14L31,40z M29.6,28.8     L29,29.1V36h-4v-6h-2v6h-4v-6.9l-0.6-0.3C13.3,26.6,10,21.6,10,16c0-7.7,6.3-14,14-14s14,6.3,14,14C38,21.6,34.7,26.6,29.6,28.8z     " style="fill:#303033;"/></g></g></svg>